HIERARCHY
ROOT root
{
	OFFSET 0.000000 0.000000 0.000000
	CHANNELS 6 Xposition Yposition Zposition Zrotation Yrotation Xrotation
	JOINT lhip
	{
		OFFSET 0.058581 -0.082280 -0.017664
		CHANNELS 3 Zrotation Yrotation Xrotation
		JOINT lknee
		{
			OFFSET 0.043451 -0.386469 0.008037
			CHANNELS 3 Zrotation Yrotation Xrotation
			JOINT lankle
			{
				OFFSET -0.014790 -0.426874 -0.037428
				CHANNELS 3 Zrotation Yrotation Xrotation
				JOINT ltoe
				{
					OFFSET 0.041054 -0.060286 0.122042
					CHANNELS 3 Zrotation Yrotation Xrotation
					End Site
					{
						OFFSET 0.000000 0.000000 0.000000
					}
				}
			}
		}
	}
	JOINT rhip
	{
		OFFSET -0.060310 -0.090513 -0.013543
		CHANNELS 3 Zrotation Yrotation Xrotation
		JOINT rknee
		{
			OFFSET -0.043257 -0.383688 -0.004843
			CHANNELS 3 Zrotation Yrotation Xrotation
			JOINT rankle
			{
				OFFSET 0.019056 -0.420046 -0.034562
				CHANNELS 3 Zrotation Yrotation Xrotation
				JOINT rtoe
				{
					OFFSET -0.034840 -0.062106 0.130323
					CHANNELS 3 Zrotation Yrotation Xrotation
					End Site
					{
						OFFSET 0.000000 0.000000 0.000000
					}
				}
			}
		}
	}
	JOINT lowerback
	{
		OFFSET 0.004439 0.124404 -0.038385
		CHANNELS 3 Zrotation Yrotation Xrotation
		JOINT upperback
		{
			OFFSET 0.004488 0.137956 0.026820
			CHANNELS 3 Zrotation Yrotation Xrotation
			JOINT chest
			{
				OFFSET -0.002265 0.056032 0.002855
				CHANNELS 3 Zrotation Yrotation Xrotation
				JOINT lowerneck
				{
					OFFSET -0.013390 0.211636 -0.033468
					CHANNELS 3 Zrotation Yrotation Xrotation
					JOINT upperneck
					{
						OFFSET 0.010113 0.088937 0.050410
						CHANNELS 3 Zrotation Yrotation Xrotation
						End Site
						{
							OFFSET 0.000000 0.000000 0.000000
						}
					}
				}
				JOINT lclavicle
				{
					OFFSET 0.071702 0.114000 -0.018898
					CHANNELS 3 Zrotation Yrotation Xrotation
					JOINT lshoulder
					{
						OFFSET 0.122921 0.045205 -0.019046
						CHANNELS 3 Zrotation Yrotation Xrotation
						JOINT lelbow
						{
							OFFSET 0.255332 -0.015649 -0.022946
							CHANNELS 3 Zrotation Yrotation Xrotation
							JOINT lwrist
							{
								OFFSET 0.265709 0.012698 -0.007375
								CHANNELS 3 Zrotation Yrotation Xrotation
								End Site
								{
									OFFSET 0.000000 0.000000 0.000000
								}
							}
						}
					}
				}
				JOINT rclavicle
				{
					OFFSET -0.082954 0.112472 -0.023707
					CHANNELS 3 Zrotation Yrotation Xrotation
					JOINT rshoulder
					{
						OFFSET -0.113228 0.046853 -0.008472
						CHANNELS 3 Zrotation Yrotation Xrotation
						JOINT relbow
						{
							OFFSET -0.260127 -0.014369 -0.031269
							CHANNELS 3 Zrotation Yrotation Xrotation
							JOINT rwrist
							{
								OFFSET -0.269108 0.006794 -0.006027
								CHANNELS 3 Zrotation Yrotation Xrotation
								End Site
								{
									OFFSET 0.000000 0.000000 0.000000
								}
							}
						}
					}
				}
			}
		}
	}
}
MOTION
Frames: 9
Frame Time: 0.033333
1.752658 0.745907 0.979324 -89.563660 2.762085 86.661327 1.687163 0.398200 6.654047 -2.315049 -12.168752 2.820505 6.285020 9.166227 -19.275847 0.000000 -0.000000 0.000000 3.187581 -1.856050 2.752324 2.712250 2.334166 9.146323 1.137232 -4.625862 -15.878470 0.000000 -0.000000 0.000000 -1.902695 1.795543 3.532916 1.264381 -2.434200 3.200576 1.751864 -1.000582 3.150981 3.059301 3.608107 -7.009742 2.188444 -2.035603 -2.269954 -26.377169 -2.110811 1.932532 -64.257247 -6.745235 10.979038 8.271651 -19.201697 9.422078 -3.536154 -2.775727 -5.374646 24.987932 4.450692 1.665846 61.819371 6.428243 12.296927 -11.209500 18.172736 -0.472257 7.440355 0.364007 -8.002129 
1.752854 0.746079 0.979217 -89.611354 2.749127 86.745798 1.668175 0.304586 6.563562 -2.310608 -12.100669 2.782933 6.223797 9.226003 -19.245984 0.000000 -0.000000 0.000000 3.170646 -1.740192 2.611031 2.731806 2.237334 9.161608 1.226764 -4.546761 -15.945118 0.000000 -0.000000 0.000000 -1.901007 1.815460 3.389612 1.226017 -2.365945 3.143511 1.784829 -0.996457 3.256266 3.071345 3.763198 -7.249419 2.114697 -2.062723 -2.040107 -26.369279 -2.194314 1.950351 -64.300532 -6.853751 11.073943 8.264698 -19.303916 9.354935 -3.470841 -2.986688 -5.371951 24.867572 4.566912 1.620235 62.110308 6.638820 12.411000 -11.378965 17.845097 -0.410549 7.407490 0.265625 -8.023989 
1.753072 0.746304 0.979102 -89.748284 2.679379 86.799718 1.609258 0.332672 6.489542 -2.349132 -12.019833 2.813271 6.228721 9.240101 -19.250872 0.000000 -0.000000 0.000000 3.059170 -1.637685 2.449743 2.825800 2.181084 9.330112 1.141644 -4.454050 -15.949707 0.000000 -0.000000 0.000000 -1.973890 1.925779 3.354174 1.217347 -2.293477 3.073270 1.781830 -0.986470 3.238031 3.111479 3.787853 -7.191837 2.117473 -2.052292 -1.992331 -26.315874 -2.214349 1.960162 -64.327831 -6.876115 11.059601 8.296039 -19.330396 9.341948 -3.698312 -2.968358 -5.492602 24.852795 4.569515 1.645264 62.226230 6.722356 12.425029 -11.400338 17.898853 -0.413118 7.490444 0.284915 -8.080329 
1.752919 0.746545 0.979073 -89.742953 2.616711 86.784383 1.497061 0.190384 6.503053 -2.279801 -11.935814 2.870592 6.243435 9.325676 -19.263557 0.000000 -0.000000 0.000000 3.023314 -1.571083 2.488921 2.790502 2.193426 9.334666 1.204619 -4.560081 -16.023918 0.000000 -0.000000 0.000000 -1.977777 2.002158 3.351643 1.180430 -2.236458 2.987721 1.735960 -1.019664 3.295855 3.161379 3.863863 -7.321545 2.067761 -2.005524 -1.860491 -26.320651 -2.236326 1.824034 -64.269052 -6.956472 11.065737 8.241370 -19.049655 9.277270 -3.754459 -2.948171 -5.352149 24.851263 4.502452 1.599651 62.327578 6.688051 12.573297 -11.319936 18.106965 -0.389237 7.535839 0.533146 -8.160425 
1.752966 0.746667 0.979031 -89.707298 2.603147 86.856376 1.516766 0.193436 6.418314 -2.322441 -11.931411 2.873969 6.260817 9.282245 -19.248377 0.000000 -0.000000 0.000000 3.036635 -1.519564 2.399149 2.777089 2.174287 9.338056 1.220645 -4.591294 -15.974352 0.000000 -0.000000 0.000000 -2.015037 2.028258 3.285694 1.187995 -2.229967 2.924810 1.772520 -0.990113 3.244023 3.118698 3.948494 -7.217963 2.072058 -1.902794 -1.808042 -26.290898 -2.293292 1.897306 -64.321030 -6.961420 11.061599 8.272180 -19.020470 9.245418 -3.789584 -2.943113 -5.400619 24.812656 4.494158 1.674597 62.397197 6.673836 12.588153 -11.356830 18.115754 -0.331543 7.551485 0.542895 -8.213838 
1.752958 0.746888 0.979019 -89.651366 2.583696 86.916206 1.512128 0.136628 6.315655 -2.361434 -12.022051 2.927781 6.267540 9.281664 -19.269902 0.000000 -0.000000 0.000000 3.052952 -1.466649 2.303962 2.757713 2.136692 9.384185 1.176104 -4.603549 -16.041938 0.000000 -0.000000 0.000000 -2.019208 2.083107 3.277204 1.177199 -2.206388 2.799313 1.771595 -1.015302 3.182013 3.068614 4.073764 -7.067574 2.095906 -1.819880 -1.803476 -26.312294 -2.238022 1.931979 -64.265994 -6.918792 11.046710 8.328572 -18.951364 9.285650 -3.523708 -2.938519 -5.231066 24.793043 4.373346 1.624076 62.506606 6.649324 12.593260 -11.295686 18.033889 -0.149107 7.459712 0.460045 -8.107119 
1.752714 0.746972 0.979014 -89.542903 2.614483 86.860159 1.542615 0.138082 6.328593 -2.337909 -12.071999 3.026969 6.244556 9.255325 -19.267116 0.000000 -0.000000 0.000000 3.074083 -1.495995 2.420503 2.806930 2.058970 9.332021 1.151413 -4.636990 -16.006957 0.000000 -0.000000 0.000000 -1.986397 2.038298 3.293600 1.183749 -2.230218 2.825837 1.763022 -1.007280 3.166171 3.070077 4.070424 -7.063677 2.109139 -1.786105 -1.842485 -26.318549 -2.205547 1.956780 -64.198790 -6.910685 11.012919 8.377940 -18.932457 9.295435 -3.485223 -3.066164 -5.361152 24.754481 4.379648 1.665333 62.539299 6.631871 12.572143 -11.294362 18.092533 -0.192134 7.360552 0.522267 -8.231628 
1.752172 0.747221 0.978795 -89.450670 2.711722 86.901126 1.667598 0.086198 6.293693 -2.307459 -12.176522 3.003595 6.223999 9.348792 -19.237615 0.000000 -0.000000 0.000000 3.241363 -1.562436 2.400313 2.751534 2.095736 9.314408 1.092840 -4.703929 -16.062579 0.000000 -0.000000 0.000000 -1.921232 1.997688 3.065605 1.212706 -2.229251 2.901261 1.769935 -0.976724 3.224144 3.061586 4.108882 -7.017858 2.121541 -1.767301 -1.853542 -26.357788 -2.132341 1.946564 -64.108014 -6.930009 10.976921 8.335655 -18.763376 9.342131 -3.200317 -2.834406 -4.905844 24.765253 4.343041 1.658737 62.521225 6.609636 12.516653 -11.295169 17.987850 -0.093047 7.414382 0.377466 -8.049739 
1.751823 0.747219 0.978857 -89.468584 2.702603 86.868376 1.669231 0.156700 6.377334 -2.339446 -12.185971 2.991892 6.234401 9.352204 -19.288875 0.000000 -0.000000 0.000000 3.201393 -1.686167 2.457868 2.801908 2.142841 9.342064 1.028735 -4.706459 -16.089045 0.000000 -0.000000 0.000000 -1.905059 2.045712 3.018195 1.214749 -2.187068 2.927640 1.754311 -0.975281 3.232521 3.191678 4.016868 -7.140982 2.165783 -1.849607 -1.871701 -26.362804 -2.116949 1.927355 -64.029177 -6.866229 10.941611 8.236874 -18.607395 9.478641 -3.149580 -2.661376 -4.741250 24.732872 4.285182 1.569816 62.520243 6.529875 12.444937 -11.257764 17.882050 -0.076747 7.423707 0.388074 -7.954817 
